<?xml version="1.0" encoding="UTF-8"?>
<svg version="1.1" viewBox="0 0 1600 1600" xmlns="http://www.w3.org/2000/svg">
<path transform="translate(599 251)" d="m0 0c2.53-0.00115 5.05-0.00274 7.58-0.00473 5.48-0.0033 11-0.00351 16.4-9.53e-4 8.15 0.00379 16.3 0.00184 24.4-0.00121 14.6-0.00526 29.1-0.00481 43.7-0.00192 12.7 0.00252 25.5 0.00317 38.2 0.00198 1.27-1.15e-4 1.27-1.15e-4 2.56-2.31e-4 3.43-3.11e-4 6.87-6.3e-4 10.3-9.6e-4 32.2-0.00306 64.4-2.88e-4 96.6 0.0051 28.6 0.00474 57.2 0.00432 85.8-4.61e-4 32.1-0.00536 64.3-0.00747 96.4-0.00439 3.43 3.21e-4 6.86 6.34e-4 10.3 9.43e-4 1.27 1.19e-4 1.27 1.19e-4 2.56 2.4e-4 12.7 0.00114 25.5-1.89e-4 38.2-0.00272 14.5-0.00287 29-0.00213 43.4 0.00328 8.09 0.00293 16.2 0.00314 24.3-6.46e-4 6.06-0.00252 12.1 2.34e-4 18.2 0.00497 2.44 0.00111 4.88 5.62e-4 7.32-0.00188 10.9-0.01 21.8 0.0204 32.6 0.564 0.762 0.0372 1.52 0.0743 2.31 0.113 12.4 0.713 23.1 5.76 31.9 14.5 8.09 10.1 12.1 19.3 12.1 32.3 0.00153 0.713 0.00305 1.43 0.00463 2.16 0.0039 2.39 6.83e-4 4.79-0.00249 7.18 0.00135 1.74 0.00313 3.48 0.00531 5.22 0.00474 4.8 0.00322 9.6 7.22e-4 14.4-0.00163 5.21 0.0025 10.4 0.00591 15.6 0.00516 9.14 0.00657 18.3 0.00554 27.4-0.00152 13.6 0.00263 27.2 0.00787 40.8 0.00968 25.7 0.0125 51.4 0.0131 77.1 6.47e-5 2.83 1.33e-4 5.67 2.03e-4 8.5 1.7e-5 0.703 3.4e-5 1.41 5.15e-5 2.13 4.08e-4 15.6 0.0026 31.2 0.0051 46.8 0.00103 6.42 0.00202 12.8 0.00302 19.2 1.11e-4 0.709 2.21e-4 1.42 3.35e-4 2.15 0.00632 40.6 0.0104 81.2 0.00999 122-1.58e-5 1.52-3.15e-5 3.04-4.72e-5 4.56-7.34e-5 6.87-1.62e-4 13.7-2.54e-4 20.6-4.11e-5 3.06-8.13e-5 6.12-1.21e-4 9.18-2.04e-5 1.53-4.14e-5 3.06-6.31e-5 4.6-6.8e-4 48.5 0.00664 96.9 0.0205 145 0.0035 12.2 0.00697 24.4 0.0103 36.6 2.03e-4 0.752 4.06e-4 1.5 6.15e-4 2.28 0.00621 23.2 0.00998 46.3 0.0112 69.5 5.99e-5 1.09 5.99e-5 1.09 1.21e-4 2.2 8.53e-4 16 0.00111 31.9 8.3e-4 47.9-9.65e-5 5.71-1.49e-4 11.4-1.79e-4 17.1-7.91e-6 1.42-1.81e-5 2.84-3.06e-5 4.26-1.76e-4 22.7 0.00552 45.3 0.0142 68 0.00889 23.4 0.0105 46.9 0.00369 70.3-0.0037 13.5-0.00184 27 0.00794 40.6 0.00598 9.02 0.00473 18-0.00247 27.1-0.0039 5.15-0.0046 10.3 0.00346 15.4 0.00727 4.68 0.00536 9.36-0.00392 14-0.00172 1.68-8.49e-5 3.37 0.0053 5.05 0.0513 17.2-2.83 29.5-15 42.3-8.33 8.11-19 12.3-30.7 12.3-1.09 0.00327-2.18 0.00654-3.31 0.00992-1.2-0.00148-2.39-0.00297-3.63-0.0045-1.28 0.00235-2.56 0.0047-3.88 0.00713-3.56 0.0064-7.13 0.00656-10.7 0.00572-3.87 1.69e-4 -7.74 0.00608-11.6 0.0112-7.69 0.00933-15.4 0.0132-23.1 0.0155-9.2 0.00296-18.4 0.0117-27.6 0.0204-22.2 0.0208-44.5 0.0313-66.7 0.0401-10.5 0.00421-21 0.00943-31.6 0.0147-36 0.0179-72 0.0329-108 0.0403-2.26 4.75e-4 -4.52 9.51e-4 -6.78 0.00143-1.68 3.55e-4 -1.68 3.55e-4 -3.4 7.16e-4 -5.68 0.0012-11.4 0.00242-17 0.00364-1.69 3.6e-4 -1.69 3.6e-4 -3.42 7.28e-4 -36.6 0.00789-73.1 0.0313-110 0.0638-38.6 0.0343-77.3 0.054-116 0.0573-4.24 4.18e-4 -8.48 8.97e-4 -12.7 0.00142-1.04 1.23e-4 -2.09 2.46e-4 -3.16 3.73e-4 -16.8 0.00233-33.6 0.018-50.4 0.0385-16.9 0.0202-33.8 0.0257-50.7 0.0162-10-0.00522-20.1 6.92e-4 -30.1 0.0225-6.71 0.0135-13.4 0.0124-20.1-4.02e-4 -3.82-0.00691-7.64-0.00752-11.5 0.00956-4.12 0.0183-8.24 0.0055-12.4-0.0102-1.77 0.0153-1.77 0.0153-3.58 0.031-11.6-0.0967-21.2-3.29-29.6-11.5-7.92-9.17-10.5-18.6-10.4-30.5-0.00686-0.998-0.0137-2-0.0208-3.02-0.0182-3.27-0.0144-6.54-0.00874-9.81-0.00457-2.29-0.00987-4.58-0.0159-6.87-0.00891-4.79-0.00653-9.58 0.00343-14.4 0.0115-6.12-0.00873-12.2-0.0379-18.4-0.0184-4.73-0.0181-9.46-0.0124-14.2 1.53e-4 -2.25-0.00584-4.51-0.0183-6.76-0.015-3.16-0.00417-6.32 0.0129-9.48-0.00967-0.917-0.0193-1.83-0.0293-2.78 0.114-10.2 3.73-20.2 10.5-27.9 8.89-7.56 17.4-11.1 29-11 0.336-1.48 0.336-1.48 0.679-2.99 1.86-8.08 3.84-16.1 6.01-24.1 0.234-0.86 0.467-1.72 0.708-2.61 0.961-3.53 1.93-7.05 2.89-10.6 4.86-17.7 8.87-34.8 9.02-53.3 0.029-1.17 0.058-2.33 0.0879-3.54 0.146-21-6.13-41.4-11.6-61.5-0.963-3.58-1.92-7.16-2.88-10.7-0.592-2.2-1.19-4.41-1.78-6.61-0.267-0.99-0.535-1.98-0.81-3-0.234-0.864-0.469-1.73-0.71-2.62-0.628-2.48-1.15-4.96-1.62-7.47-0.739 0.0157-1.48 0.0314-2.24 0.0476-28.8 0.53-53-3.36-74.5-23.7-16.6-17.1-24.1-37.6-24.9-61.1-0.0221-0.704-0.0443-1.41-0.067-2.13-0.471-16-0.247-32.1 0.00455-48.1 0.0171-1.26 0.0341-2.52 0.0517-3.82 0.0517-3.64 0.117-7.29 0.187-10.9 0.0147-1.09 0.0295-2.17 0.0447-3.3 0.486-21.8 9.24-41.8 24.5-57.2 16.3-15.4 35.8-23.9 58.3-23.8 1.38-2.19e-4 1.38-2.19e-4 2.78-4.42e-4 3.01 6.93e-4 6.03 0.00846 9.04 0.0163 2.1 0.00187 4.19 0.00329 6.29 0.00429 5.51 0.00381 11 0.0136 16.5 0.0247 5.62 0.0103 11.2 0.0148 16.9 0.0198 11 0.0107 22 0.0278 33.1 0.0488-7.59e-4 -0.983-0.00152-1.97-0.0023-2.98-0.0448-58.2-0.0791-116-0.0998-175-0.00249-6.99-0.00509-14-0.00773-21-2.62e-4 -0.695-5.23e-4 -1.39-7.92e-4 -2.11-0.00852-22.5-0.0235-45.1-0.0419-67.6-0.0194-23.8-0.0314-47.6-0.0356-71.5-0.00275-14.3-0.0114-28.5-0.0277-42.8-0.0106-9.78-0.0138-19.6-0.0112-29.3 0.00128-5.65-7.03e-4 -11.3-0.0114-16.9-0.00973-5.17-0.0102-10.3-0.00339-15.5 8.45e-4 -1.87-0.00169-3.74-0.00797-5.61-0.00804-2.54-0.00369-5.09 0.00367-7.63-0.00525-0.724-0.0105-1.45-0.0159-2.19 0.0844-12.9 5.05-25.1 13.8-34.6 17.4-16.2 40.2-13.7 62.3-13.7zm21.1 18.1c-7.77 0.0371-15.5 0.0895-23.3 0.175-3.39 0.0373-6.79 0.0687-10.2 0.0837-3.75 0.0204-7.5 0.0656-11.2 0.117-1.1 8.23e-4 -2.21 0.00165-3.35 0.00249-8.57 0.16-16 1.99-22.2 8.29-10.8 11.6-8.83 27-8.81 41.9-0.00115 1.89-0.00274 3.79-0.00473 5.68-0.00417 5.19-0.00211 10.4 9.86e-4 15.6 0.00226 5.6-0.00123 11.2-0.00398 16.8-0.00444 11-0.00349 21.9-5.87e-4 32.9 0.00226 8.9 0.00256 17.8 0.00148 26.7-1.53e-4 1.27-3.06e-4 2.53-4.64e-4 3.84-3.2e-4 2.57-6.44e-4 5.15-9.73e-4 7.72-0.00277 23.4 1.02e-4 46.9 0.00534 70.3 0.00475 21.4 0.00432 42.8-4.61e-4 64.2-0.00535 24-0.00746 48.1-0.00439 72.1 3.19e-4 2.56 6.33e-4 5.12 9.43e-4 7.68 1.54e-4 1.26 3.09e-4 2.52 4.68e-4 3.82 8.65e-4 8.9-5.98e-4 17.8-0.00295 26.7-0.0028 10.8-0.00206 21.7 0.00328 32.5 0.00264 5.53 0.00364 11.1 3.51e-4 16.6-0.00296 5.05-0.00137 10.1 0.00398 15.2 0.00113 1.84 5.31e-4 3.67-0.00188 5.51-3e-3 2.48 3.85e-5 4.96 0.00472 7.44-0.00234 0.728-0.00468 1.46-0.00709 2.21-0.273 3.3-0.273 3.3 1.13 6.03 1.41 0.098 2.82 0.128 4.23 0.129 0.898 0.00315 1.8 0.0063 2.72 0.00955 0.976-0.00202 1.95-0.00405 2.96-0.00613 1.49 0.00144 1.49 0.00144 3.02 0.0029 2.11 6.82e-4 4.22-0.00117 6.33-0.00534 3.24-0.00535 6.48-5.54e-5 9.72 0.00635 2.04-6.61e-4 4.09-0.00194 6.13-0.00391 1.46 0.00304 1.46 0.00304 2.96 0.00613 0.898-0.00315 1.8-0.0063 2.72-0.00955 0.794-7.96e-4 1.59-0.00159 2.41-0.00241 1.84 0.0719 1.84 0.0719 2.82-1.13 0.0955-1.36 0.122-2.72 0.12-4.09 0.00137-0.887 0.00275-1.77 0.00417-2.69-0.0036-0.986-0.00719-1.97-0.0109-2.99 1.47e-4 -1.04 2.93e-4 -2.08 4.44e-4 -3.15-7.06e-4 -3.52-0.00858-7.05-0.0163-10.6-0.00188-2.52-0.00331-5.05-0.00431-7.57-0.00311-5.48-0.00924-11-0.018-16.4-0.0127-8.03-0.0195-16.1-0.0247-24.1-0.00243-3.78-0.00507-7.56-0.00776-11.3-5.4e-4 -0.76-0.00108-1.52-0.00164-2.3-0.00403-5.5-0.00908-11-0.0146-16.5-0.0228-22.6-0.0348-45.2-0.0371-67.9-8.44e-5 -0.796-1.69e-4 -1.59-2.56e-4 -2.41-0.00113-11.2-0.00132-22.4-0.00103-33.6 6.09e-5 -2.39 1.02e-4 -4.78 1.39e-4 -7.18 4.16e-4 -22.4 0.00394-44.8 0.0116-67.3 4.1e-4 -1.25 8.2e-4 -2.5 0.00124-3.79 0.00832-24.3 0.0244-48.6 0.131-72.9 0.00684-1.56 0.0137-3.13 0.0205-4.69 0.00333-0.76 0.00666-1.52 0.0101-2.3 0.0219-5.29 0.0304-10.6 0.0329-15.9 0.00324-6.89 0.0309-13.8 0.0779-20.7 0.0128-2.42 0.0174-4.83 0.0127-7.25-0.00483-3.2 0.0206-6.39 0.0544-9.59-0.00863-0.907-0.0173-1.81-0.0261-2.75 0.112-6.19 1.66-10.5 5.69-15.2 6.1-5.38 11.2-6.15 19.1-6.13 1.42-0.00308 1.42-0.00308 2.86-0.00622 3.2-0.0057 6.39-0.00421 9.59-0.00279 2.3-0.00258 4.61-0.00559 6.91-9e-3 6.35-0.00809 12.7-0.00986 19.1-0.0106 6.14-0.00118 12.3-0.00797 18.4-0.0141 16.5-0.0161 32.9-0.022 49.4-0.0267 7.78-0.00233 15.6-0.00594 23.3-0.0097 26.6-0.0128 53.3-0.0236 79.9-0.027 1.67-2.22e-4 3.34-4.43e-4 5.02-6.65e-4 1.68-2.21e-4 3.35-4.41e-4 5.03-6.61e-4 3.36-4.43e-4 6.73-8.9e-4 10.1-0.00134 0.834-1.09e-4 1.67-2.19e-4 2.53-3.31e-4 27-0.00363 54.1-0.0196 81.1-0.0429 28.6-0.0246 57.2-0.0383 85.7-0.0395 3.14-1.71e-4 6.27-3.87e-4 9.41-6.34e-4 1.16-8.36e-5 1.16-8.36e-5 2.34-1.69e-4 12.4-0.00115 24.9-0.0122 37.3-0.0267 12.5-0.0144 25-0.0176 37.5-0.00956 6.77 0.00407 13.5 0.00293 20.3-0.0111 6.2-0.0127 12.4-0.0116 18.6 5.91e-4 2.25 0.00197 4.49-0.00117 6.74-0.00984 3.05-0.011 6.09-0.00365 9.14 0.00839 1.32-0.0114 1.32-0.0114 2.66-0.023 6.65 0.057 11.3 1.29 16.6 5.58 6.87 8.36 6.88 16 6.81 26.3 0.00357 1.6 0.00889 3.19 0.0158 4.79 0.0139 4.4 0.00291 8.79-0.0121 13.2-0.0119 4.78-6.83e-4 9.56 0.00764 14.3 0.0114 8.38 0.00786 16.8-0.00537 25.1-0.0196 12.5-0.0164 24.9-0.0085 37.4 0.0126 21 0.0062 41.9-0.0112 62.9-0.0172 20.8-0.027 41.5-0.0267 62.3 2.29e-5 1.94 2.29e-5 1.94 4.63e-5 3.91 8.18e-5 5.24 2.13e-4 10.5 4.12e-4 15.7 5.4e-4 14.6-2.22e-4 29.3-0.00198 43.9-7.94e-5 0.667-1.59e-4 1.33-2.4e-4 2.02-0.00262 21.3-0.011 42.5-0.0235 63.8-4.06e-4 0.689-8.12e-4 1.38-0.00123 2.09-0.00662 11.2-0.0136 22.4-0.0206 33.6-0.0278 44.4-0.0411 88.8-0.0397 133 4.08e-5 1.4 8.12e-5 2.81 1.21e-4 4.21 8.04e-5 2.8 1.62e-4 5.61 2.44e-4 8.41 1.83e-4 6.29 3.52e-4 12.6 4.93e-4 18.9 3.15e-5 1.39 6.44e-5 2.78 9.87e-5 4.18 8.9e-4 37.2-0.00806 74.4-0.0207 112-4.41e-4 1.3-8.81e-4 2.6-0.00133 3.93-0.00178 5.22-0.00355 10.4-0.00538 15.7-0.00632 18.2-0.00934 36.3-0.0102 54.5-0.00119 23.4-0.00916 46.8-0.0289 70.2-0.0102 12.4-0.015 24.8-0.012 37.2 0.00147 8.27-0.00431 16.5-0.0161 24.8-0.00652 4.72-0.00985 9.43-0.00448 14.1 0.00481 4.29 4.88e-4 8.57-0.0112 12.9-0.00261 1.54-0.00185 3.09 0.00263 4.63 0.00559 2.09-0.00112 4.19-0.0109 6.28-8.74e-4 1.74-8.74e-4 1.74-0.00177 3.52-0.61 8.07-3.45 12.9-9.25 18.3-5.65 3.17-12.3 3.15-18.6 3.14-0.75 0.00284-1.5 0.00568-2.27 0.00861-2.51 0.00833-5.03 0.00961-7.54 0.0109-1.82 0.00457-3.64 0.00957-5.46 0.015-5 0.0136-10 0.021-15 0.0274-5.39 0.00801-10.8 0.0217-16.2 0.0347-9.35 0.0218-18.7 0.0399-28 0.0556-13.5 0.0227-27 0.0508-40.5 0.0803-21.9 0.0477-43.9 0.0909-65.8 0.131-21.3 0.0394-42.6 0.0808-63.9 0.125-1.31 0.00272-2.63 0.00545-3.98 0.00826-6.59 0.0137-13.2 0.0274-19.8 0.0411-54.6 0.114-109 0.221-164 0.323-0.0449 1-0.0898 2.01-0.136 3.04-0.172 3.77-0.361 7.54-0.554 11.3-0.0809 1.62-0.157 3.24-0.229 4.87-0.415 9.27-1 17.9-4.08 26.8 46.5 0.0685 93 0.132 139 0.169 0.688 5.52e-4 1.38 0.0011 2.08 0.00167 15 0.012 29.9 0.0231 44.9 0.0332 7.33 0.00499 14.7 0.0102 22 0.0155 0.73 5.23e-4 1.46 0.00105 2.21 0.00158 23.6 0.017 47.3 0.0471 70.9 0.0839 24.3 0.0377 48.6 0.0624 72.9 0.0705 3.43 0.00115 6.87 0.00246 10.3 0.00385 0.676 2.7e-4 1.35 5.39e-4 2.05 8.17e-4 10.9 0.00473 21.7 0.0233 32.6 0.047 10.9 0.0236 21.9 0.0322 32.8 0.0267 5.92-0.00256 11.8 0.0014 17.8 0.0228 5.42 0.0195 10.8 0.0204 16.3 0.00677 1.96-0.00169 3.92 0.00338 5.88 0.0159 11.1 0.0672 19.9-0.21 29.6-6.19 10.6-10.9 10.5-22.8 10.5-37.2 0.00209-1.73 0.00505-3.46 0.00881-5.19 0.00779-4.76 0.00312-9.52-0.00356-14.3-0.00507-5.17 0.00144-10.3 0.00649-15.5 0.00723-9.07 7e-3 -18.1 0.00191-27.2-0.00756-13.5-0.0037-27 0.00242-40.5 0.00993-22.7 0.0103-45.4 0.00485-68.1-2.48e-4 -1.04-2.48e-4 -1.04-5.02e-4 -2.09-1.66e-4 -0.692-3.32e-4 -1.38-5.03e-4 -2.1-0.00505-21.1-0.00635-42.2-0.00395-63.2 1.55e-4 -1.41 3.09e-4 -2.82 4.63e-4 -4.23 6.21e-4 -5.67 0.00126-11.3 0.00192-17 0.00183-15.9 0.00298-31.7 0.00357-47.6 4.09e-5 -1.08 4.09e-5 -1.08 8.27e-5 -2.19 8.19e-4 -23-0.00144-46-0.00578-69-1.4e-4 -0.746-2.81e-4 -1.49-4.26e-4 -2.26-0.00229-12.1-0.00473-24.2-0.00718-36.4-0.00971-48.1-0.00926-96.1 4.61e-4 -144 0.00244-12.1 0.00486-24.2 0.00714-36.3 1.41e-4 -0.746 2.82e-4 -1.49 4.27e-4 -2.26 0.00431-23 0.00614-46 0.00527-68.9-2.72e-5 -0.721-5.43e-5 -1.44-8.23e-5 -2.19-6.25e-4 -15.8-0.00189-31.7-0.00374-47.5-6.58e-4 -5.67-0.00128-11.3-0.0019-17-1.55e-4 -1.41-3.12e-4 -2.82-4.72e-4 -4.23-0.00239-21.1-3.53e-4 -42.1 0.0047-63.2 1.66e-4 -0.691 3.31e-4 -1.38 5.02e-4 -2.09 1.65e-4 -0.69 3.31e-4 -1.38 5.01e-4 -2.09 0.00551-23.3 0.00349-46.5-0.00706-69.8-0.00588-13.4-0.00624-26.8 0.00129-40.2 0.00447-8.95 0.00172-17.9-0.00701-26.8-0.00477-5.1-0.00635-10.2 8.12e-4 -15.3 0.00645-4.64 0.00374-9.28-0.00636-13.9-0.00202-1.67-6.7e-4 -3.34 0.00441-5.01 0.00641-2.27 4.81e-4 -4.53-0.00848-6.8-1.36e-4 -1.26-2.71e-4 -2.51-4.11e-4 -3.81-0.615-8.96-3.58-16.3-10.2-22.5-6.9-5.43-13.4-6.5-22-6.79-1.45-0.0564-1.45-0.0564-2.93-0.114-10.9-0.388-21.7-0.408-32.6-0.396-2.28-0.00116-4.55-0.00275-6.83-0.00473-6.19-0.00414-12.4-0.00213-18.6 9.86e-4 -6.02 0.00204-12-6.43e-4 -18-0.00315-13.1-0.00524-26.1-0.00482-39.2-0.00192-11.5 0.00253-22.9 0.00317-34.4 0.00198-0.763-7.64e-5 -1.53-1.53e-4 -2.31-2.31e-4 -3.1-3.11e-4 -6.2-6.3e-4 -9.3-9.6e-4 -29.1-0.00306-58.1-2.93e-4 -87.2 0.0051-25.7 0.00473-51.3 0.00434-77-4.61e-4 -28.9-0.00539-57.9-0.00746-86.8-0.00439-3.11 3.21e-4 -6.21 6.33e-4 -9.32 9.43e-4 -1.15 1.19e-4 -1.15 1.19e-4 -2.32 2.4e-4 -11.4 0.00112-22.8-1.68e-4 -34.2-0.00272-13-0.0029-26.1-0.00206-39.1 0.00328-6.62 0.00262-13.2 0.00375-19.9 3.51e-4 -15.5-0.00704-30.9 0.0215-46.4 0.111-2.61 0.0148-5.23 0.0285-7.84 0.0408zm-13.9 66c-0.0978 2.61-0.13 5.18-0.12 7.79-8.56e-4 0.824-0.00171 1.65-0.00259 2.5-0.00167 2.79 0.00388 5.58 0.00932 8.37 3.06e-4 2.02 1.73e-4 4.05-3.65e-4 6.07-2.27e-4 5.44 0.00559 10.9 0.0126 16.3 0.00568 5.09 0.00596 10.2 0.00668 15.3 0.00526 14.9 0.0192 29.8 0.0321 44.7l0.0625 101h268c2.83-100 2.83-100 1-202-1.57-1.57-3.11-1.13-5.29-1.13-0.931-0.00261-1.86-0.00522-2.82-0.0079-1.04 0.00223-2.07 0.00446-3.14 0.00676-1.09-0.00156-2.18-0.00312-3.3-0.00473-3.68-0.00402-7.37-8.18e-4 -11.1 0.00232-2.63-0.00135-5.26-0.00313-7.89-0.00531-6.42-0.00446-12.8-0.00348-19.3-5.87e-4 -5.21 0.00225-10.4 0.00257-15.6 0.00148-0.741-1.53e-4 -1.48-3.06e-4 -2.24-4.64e-4 -1.5-3.2e-4 -3.01-6.44e-4 -4.51-9.73e-4 -14.1-0.00285-28.2 4.33e-4 -42.4 0.0058-12.1 0.00447-24.3 0.00369-36.4-9.19e-4 -14.1-0.00535-28.1-0.00746-42.2-0.00439-1.5 3.19e-4 -3 6.33e-4 -4.5 9.43e-4 -0.738 1.54e-4 -1.48 3.09e-4 -2.24 4.68e-4 -5.21 8.65e-4 -10.4-5.98e-4 -15.6-0.00295-7.01-0.00309-14-9.06e-4 -21 0.00489-2.58 0.00133-5.16 9.32e-4 -7.74-0.00126-3.51-0.00271-7.01 6.66e-4 -10.5 0.00568-1.04-0.00223-2.07-0.00446-3.14-0.00676-0.931 0.00261-1.86 0.00522-2.82 0.0079-0.81 1.62e-4 -1.62 3.25e-4 -2.46 4.92e-4 -1.85-0.0754-1.85-0.0754-2.84 1.13zm287-1v203h268c0.871-70.9 0.871-70.9 1.13-142-0.0027-5.06 0.0023-10.1 0.00699-15.2 0.00359-4.95 0.00248-9.9-1.28e-4 -14.8-6.61e-4 -2.32 1.31e-4 -4.64 0.00248-6.95 0.00253-3.16-0.0013-6.32-0.0069-9.48 0.00304-1.39 0.00304-1.39 0.00613-2.81-0.00282-0.855-0.00564-1.71-0.00854-2.59-3.77e-4 -0.736-7.54e-4 -1.47-0.00114-2.23-0.103-2.67-0.103-2.67-1.13-7.18h-268zm-287 221c-0.0233 26.5-0.041 52.9-0.0518 79.4-0.00516 12.3-0.0122 24.6-0.0236 36.8-0.00994 10.7-0.0164 21.4-0.0186 32.1-0.00131 5.67-0.0044 11.3-0.0116 17-0.00676 5.33-0.00889 10.7-0.00738 16-2.76e-4 1.96-0.00228 3.92-0.0061 5.89-0.00493 2.67-0.00379 5.33-0.00105 8-0.00291 0.787-0.00583 1.57-0.00883 2.38-0.314 3.51-0.314 3.51 1.13 6.44 2.56 0.106 5.09 0.146 7.65 0.145 1.22 0.00529 1.22 0.00529 2.46 0.0107 2.74 0.0107 5.47 0.0144 8.21 0.0181 1.95 0.0063 3.91 0.0131 5.86 0.0203 4.22 0.0147 8.44 0.0264 12.7 0.0359 6.68 0.0154 13.4 0.0394 20 0.0649 19 0.0713 38 0.131 57 0.182 10.5 0.0283 21 0.0637 31.4 0.107 6.63 0.0267 13.3 0.0447 19.9 0.056 4.14 0.00915 8.28 0.0265 12.4 0.0462 1.91 0.00745 3.83 0.0116 5.74 0.012 12.3 0.00512 23.5 0.097 34.7 5.86 0.686 0.351 1.37 0.702 2.08 1.06 15 7.97 23.8 20.9 28.7 36.9 0.265 0.89 0.53 1.78 0.804 2.7 0.268 0.899 0.536 1.8 0.813 2.72 0.203 0.684 0.407 1.37 0.616 2.07 0.627 0.00365 1.25 0.00729 1.9 0.011 6.57 0.0421 13.1 0.112 19.7 0.196 2.45 0.0281 4.89 0.0494 7.34 0.0635 3.53 0.0216 7.06 0.0683 10.6 0.12 1.08 0.00123 2.16 0.00246 3.27 0.00372 10.6 0.201 19.5 2.87 27.2 10.3 5.63 6.55 7.5 13.4 8.48 21.9 0.151 0.782 0.302 1.56 0.457 2.37 3.32 1.66 7.02 1.11 10.7 1.08 1.35-0.0046 1.35-0.0046 2.72-0.00929 1.96-0.00717 3.91-0.0166 5.87-0.0279 3.1-0.0174 6.21-0.0277 9.31-0.0359 8.83-0.0245 17.7-0.0598 26.5-0.105 5.4-0.0269 10.8-0.0439 16.2-0.0549 2.05-0.00617 4.1-0.0161 6.15-0.0301 31.6-0.213 31.6-0.213 40.6 7.94 7.19 7.64 8.66 14.4 8.41 24.8-0.764 7.41-4.04 13.2-9.35 18.4-7.94 5.34-14.5 6.15-23.9 6.19-0.994 0.00829-1.99 0.0166-3.01 0.0251-2.15 0.0174-4.31 0.0325-6.46 0.0458-3.4 0.021-6.81 0.0481-10.2 0.0767-8.45 0.0698-16.9 0.129-25.3 0.189-7.15 0.0508-14.3 0.106-21.4 0.166-3.36 0.0267-6.72 0.0474-10.1 0.068-2.05 0.0166-4.09 0.0335-6.14 0.0507-1.41 0.00628-1.41 0.00628-2.86 0.0127-4.1-0.376-4.1-0.376-7.54 1.18-0.248 1.79-0.473 3.58-0.688 5.38-1.43 8.86-5.13 16.9-12.4 22.4-9.51 6.02-19 6.34-30 6.53-1.03 0.0208-2.06 0.0416-3.13 0.063-3.27 0.065-6.54 0.124-9.81 0.183-2.23 0.0432-4.46 0.0869-6.68 0.131-5.44 0.107-10.9 0.208-16.3 0.307-0.4 1.23-0.8 2.47-1.21 3.74-0.536 1.64-1.07 3.27-1.61 4.91-0.393 1.22-0.393 1.22-0.794 2.46-4.99 15.2-14.6 26.4-28.6 34.1-10 4.8-20.3 6.23-31.3 6.22-1.19 0.0102-2.38 0.0204-3.61 0.0309-3.9 0.0299-7.79 0.0394-11.7 0.0485-2.72 0.0152-5.44 0.0349-8.15 0.0544-6.4 0.0435-12.8 0.0721-19.2 0.0953-7.29 0.0272-14.6 0.0711-21.9 0.116-15 0.0925-30 0.164-44.9 0.222-1.22 2.44-1.18 4.57-1.29 7.25-0.71 17.7-5.95 33-18.7 45.7-16.4 13.6-35.3 16.9-56.1 15.9-2.11-0.0635-2.11-0.0635-3.86 2.12-0.298 2.17-0.298 2.17-0.241 4.72-0.00275 0.996-0.0055 1.99-0.00833 3.02 0.00719 1.1 0.0144 2.19 0.0218 3.32-2.92e-4 1.15-5.84e-4 2.3-8.85e-4 3.49 0.0014 3.82 0.017 7.64 0.0326 11.5 0.00373 2.64 0.00658 5.29 0.00858 7.93 0.00622 6.25 0.0226 12.5 0.0427 18.8 0.0223 7.12 0.0333 14.2 0.0434 21.4 0.0209 14.6 0.0561 29.3 0.101 43.9 0.986 0.00365 1.97 0.00729 2.99 0.011 9.34 0.0371 18.7 0.0951 28 0.173 4.8 0.0393 9.6 0.0716 14.4 0.0871 4.64 0.0153 9.28 0.0499 13.9 0.0973 1.76 0.0147 3.52 0.0227 5.28 0.0236 13.2 0.0127 25.9 0.599 36.4 9.62 10.3 10.6 11.4 21.7 11.6 35.7 0.0364 2.18 0.0767 4.37 0.119 6.55 0.0285 1.49 0.056 2.98 0.0818 4.48 0.115 5.94 0.376 11.9 0.688 17.8 0.0467 0.912 0.0935 1.82 0.142 2.76 0.114 2.22 0.229 4.44 0.345 6.65 20.1 0.0233 40.1 0.041 60.2 0.0518 9.31 0.00516 18.6 0.0122 27.9 0.0236 8.12 0.00995 16.2 0.0164 24.3 0.0186 4.3 0.00131 8.6 0.00439 12.9 0.0116 4.04 0.00676 8.08 0.00889 12.1 0.00738 1.49 2.76e-4 2.98 0.00228 4.46 0.0061 2.02 0.00493 4.05 0.00319 6.07 0.00105 1.13 9.22e-4 2.27 0.00184 3.44 0.00279 2.47 0.164 2.47 0.164 3.53-1.12 0.112-2.59 0.159-5.15 0.165-7.74 0.00564-0.821 0.0113-1.64 0.0171-2.49 0.0178-2.77 0.0284-5.54 0.0391-8.32 0.0112-1.98 0.0228-3.96 0.0349-5.94 0.0314-5.39 0.0565-10.8 0.0802-16.2 0.0255-5.63 0.0559-11.3 0.0855-16.9 0.0489-9.45 0.0936-18.9 0.136-28.4 0.0491-10.9 0.105-21.9 0.165-32.8 0.0513-9.38 0.0986-18.8 0.143-28.1 0.0264-5.61 0.0541-11.2 0.0854-16.8 0.0292-5.27 0.0535-10.5 0.0739-15.8 0.00834-1.94 0.0184-3.88 0.0303-5.82 0.0159-2.64 0.0256-5.28 0.0337-7.91 0.00612-0.778 0.0122-1.56 0.0186-2.36 0.00224-1.8-0.0469-3.59-0.108-5.39-1.54-1.54-3.01-1.21-5.16-1.31-0.903-0.0412-1.81-0.0825-2.74-0.125-1.51-0.0581-1.51-0.0581-3.05-0.117-1.06-0.0422-2.13-0.0844-3.22-0.128-13.4-0.476-26.7-0.455-40.1-0.457-4.76-0.00116-9.52-0.0142-14.3-0.0296-0.81-0.00257-1.62-0.00515-2.46-0.0078-1.65-0.00526-3.31-0.0105-4.96-0.0159-11-0.0349-22.1-0.0616-33.1-0.0592-7.51 0.00159-15-0.0144-22.5-0.0507-3.96-0.0184-7.91-0.0278-11.9-0.0155-3.7 0.0114-7.4-1.93e-4 -11.1-0.0296-2-0.00982-4.01 0.00514-6.01 0.0208-1.19-0.0138-2.38-0.0277-3.61-0.0419-1.03-0.00147-2.07-0.00293-3.13-0.00444-2.69-0.628-2.69-0.628-5.06-2.94-1.63-2.69-1.63-2.69-1.57-6.31 1.24-4.47 1.24-4.47 3.94-6.38 2.99-0.382 2.99-0.382 6.73-0.392 0.688-0.00594 1.38-0.0119 2.08-0.018 2.31-0.0163 4.62-0.0113 6.93-0.0065 1.65-0.00738 3.31-0.0161 4.96-0.026 4.5-0.0234 8.99-0.0285 13.5-0.0307 4.7-0.00565 9.39-0.0289 14.1-0.0506 8.9-0.0386 17.8-0.0628 26.7-0.0811 15.9-0.0334 31.9-0.091 47.8-0.154 5.6-0.0215 11.2-0.0368 16.8-0.0468 3.48-7e-3 6.95-0.0179 10.4-0.0296 1.62-0.00458 3.24-0.00741 4.86-0.00842 2.2-0.00156 4.4-0.00911 6.6-0.0182 1.23-0.00256 2.47-0.00511 3.74-0.00775 2.65 0.182 2.65 0.182 3.74-1.13 0.138-1.98 0.207-3.96 0.25-5.94 0.0303-1.27 0.0606-2.54 0.0918-3.85 0.0142-0.684 0.0285-1.37 0.0431-2.07 0.0455-2.14 0.0985-4.27 0.154-6.4 0.157-6.07 0.307-12.1 0.436-18.2 0.0795-3.71 0.173-7.42 0.276-11.1 0.0364-1.42 0.0675-2.83 0.093-4.25 0.0363-1.98 0.092-3.96 0.149-5.94 0.0259-1.13 0.0517-2.25 0.0783-3.42 0.43-2.78 0.43-2.78 1.79-4.62 2.52-1.78 4.59-1.98 7.64-2.16 3.31 0.688 3.31 0.688 6 2 1.28 3.31 1.16 6.73 1.21 10.2 0.0199 1.26 0.0399 2.52 0.0604 3.82 0.017 1.37 0.0339 2.74 0.0506 4.11 0.0206 1.41 0.0416 2.81 0.063 4.22 0.0551 3.7 0.105 7.39 0.153 11.1 0.0503 3.77 0.106 7.55 0.161 11.3 0.107 7.4 0.209 14.8 0.307 22.2 34 0.0229 68 0.0405 102 0.0511 4.01 0.00125 8.02 0.00255 12 0.00387 0.798 2.62e-4 1.6 5.25e-4 2.42 7.95e-4 12.9 0.00436 25.9 0.0122 38.8 0.0214 13.3 0.00934 26.5 0.0149 39.8 0.0169 8.19 0.00138 16.4 0.00573 24.6 0.0138 6.27 0.00589 12.5 0.00654 18.8 0.00519 2.58 2.77e-4 5.16 0.00228 7.74 0.0061 3.51 0.00493 7.01 0.0038 10.5 0.00105 1.55 0.00437 1.55 0.00437 3.14 0.00883 0.932-0.00199 1.86-0.00398 2.82-0.00603 0.811 3.8e-4 1.62 7.59e-4 2.46 0.00115 1.85 0.0768 1.85 0.0768 2.84-1.12 0.102-1.43 0.134-2.86 0.139-4.29 0.00821-1.4 0.00821-1.4 0.0166-2.82 9.78e-4 -1.04 0.00196-2.07 0.00296-3.14 0.00741-1.64 0.00741-1.64 0.015-3.31 0.0155-3.69 0.0238-7.37 0.0321-11.1 0.00957-2.63 0.0196-5.26 0.03-7.89 0.0218-5.68 0.0399-11.4 0.0556-17 0.0227-8.21 0.0508-16.4 0.0803-24.6 0.0477-13.3 0.091-26.6 0.131-40 0.0393-12.9 0.0808-25.9 0.125-38.8 0.00409-1.2 0.00409-1.2 0.00826-2.42 0.0137-4 0.0274-8 0.0411-12 0.114-33.2 0.221-66.4 0.323-99.6-3-0.87-5.67-1.12-8.79-1.12-0.967-7.58e-4 -1.93-0.00152-2.93-0.0023-1.06 0.00428-2.12 0.00855-3.21 0.013-1.13 5.57e-4 -2.26 0.00111-3.42 0.00169-3.79 0.00304-7.58 0.0132-11.4 0.0233-2.71 0.00412-5.43 0.0067-8.14 0.00929-5.85 0.0063-11.7 0.016-17.5 0.0279-8.46 0.017-16.9 0.0265-25.4 0.0339-13.7 0.0119-27.5 0.0269-41.2 0.0451-0.822 0.00109-1.64 0.00218-2.49 0.0033-11.7 0.0156-23.3 0.0342-35 0.054-0.822 0.00139-1.64 0.00279-2.49 0.00422-1.23 0.00209-1.23 0.00209-2.49 0.00422-13.7 0.023-27.4 0.0383-41 0.0473-8.44 0.00586-16.9 0.0182-25.3 0.039-5.78 0.0137-11.6 0.0202-17.3 0.021-3.34 7.05e-4 -6.68 0.00582-10 0.0175-3.62 0.0121-7.23 0.012-10.8 0.00883-1.06 0.00651-2.12 0.013-3.21 0.0197-0.967-0.00337-1.93-0.00673-2.93-0.0102-1.25 0.00195-1.25 0.00195-2.53 0.00394-2.55-0.279-4.11-0.864-6.26-2.25-3.81-5.71-3.14-13.1-3.11-19.8-1.49e-4 -0.851-2.98e-4 -1.7-4.51e-4 -2.58 6.91e-4 -2.83 0.00852-5.67 0.0163-8.5 0.00192-2.04 0.00338-4.08 0.00443-6.12 0.00315-4.38 0.00941-8.76 0.0181-13.1 0.0135-6.92 0.0194-13.8 0.0241-20.8 0.0111-14.7 0.0306-29.4 0.051-44 0.022-15.9 0.0426-31.7 0.0534-47.6 5e-3 -6.89 0.0149-13.8 0.0284-20.7 0.00743-4.27 0.0108-8.54 0.013-12.8 0.00188-1.99 0.0055-3.98 0.0109-5.96 0.00715-2.7 0.00826-5.4 0.00778-8.1 0.00359-0.797 0.00719-1.59 0.0109-2.42 0.323-3.55 0.323-3.55-1.12-6.51-1.43-0.0966-2.87-0.124-4.31-0.123-0.936-0.00199-1.87-0.00398-2.83-0.00603-1.04 0.00291-2.08 0.00583-3.15 0.00883-1.64-0.00128-1.64-0.00128-3.32-0.00259-3.7-0.00166-7.4 0.00387-11.1 0.00932-2.64 2.82e-4 -5.28 1.68e-4 -7.92-4.42e-4 -5.7-5.25e-4 -11.4 0.00262-17.1 0.00824-8.24 0.00811-16.5 0.0107-24.7 0.012-13.4 0.00219-26.7 0.00885-40.1 0.0183-13 0.00917-26 0.0163-39 0.0205-0.8 2.63e-4 -1.6 5.25e-4 -2.43 7.96e-4 -4.01 0.0013-8.03 0.00257-12 0.00381-33.3 0.0104-66.7 0.028-100 0.0503zm287 0v204h268c0.278-50.2 0.278-50.2 0.562-101 0.0613-10.6 0.123-21.2 0.186-32.1 0.0499-9.45 0.0499-9.45 0.0985-18.9 0.0218-4.23 0.0464-8.45 0.0726-12.7 0.0334-5.38 0.062-10.8 0.087-16.1 0.0101-1.98 0.0218-3.96 0.0354-5.94 0.0181-2.66 0.03-5.32 0.0404-7.99 0.0068-0.787 0.0136-1.57 0.0206-2.38 0.00382-1.81-0.0437-3.63-0.103-5.44-0.982-1.2-0.982-1.2-2.84-1.12-1.22 5.7e-4 -1.22 5.7e-4 -2.47 0.00115-0.936-0.00199-1.87-0.00398-2.83-0.00603-1.04 0.00291-2.08 0.00583-3.15 0.00883-1.64-0.00128-1.64-0.00128-3.32-0.00259-3.7-0.00166-7.4 0.00387-11.1 0.00932-2.64 2.82e-4 -5.28 1.68e-4 -7.92-4.42e-4 -5.7-5.25e-4 -11.4 0.00262-17.1 0.00824-8.24 0.00811-16.5 0.0107-24.7 0.012-13.4 0.00219-26.7 0.00885-40.1 0.0183-13 0.00917-26 0.0162-39 0.0205-1.21 4.02e-4 -1.21 4.02e-4 -2.45 8.12e-4 -6.32 0.00208-12.6 0.00404-19 0.00595-31 0.00944-62 0.0296-93 0.0482zm-310 221c-21.6 0.0325-43.3 0.0797-64.9 0.168-1.84 0.00749-3.67 0.015-5.51 0.0224-0.901 0.00367-1.8 0.00734-2.73 0.0111-6.32 0.0247-12.6 0.0394-19 0.0498-7.68 0.0128-15.4 0.0394-23 0.084-3.89 0.0223-7.78 0.0385-11.7 0.0375-4.21-8.83e-4 -8.41 0.0293-12.6 0.0622-1.2-0.00503-2.4-0.0101-3.64-0.0152-18.9 0.23-35 7.24-48.4 20.5-15.5 16.1-18.2 34.7-18.2 55.9-0.0039 1.84-0.00823 3.68-0.013 5.51-0.00743 3.84-0.00719 7.68-0.00191 11.5 0.00579 4.89-0.0111 9.78-0.0343 14.7-0.0148 3.79-0.0156 7.59-0.0125 11.4-5.09e-4 1.8-0.00566 3.6-0.0158 5.4-0.11 22.2 4.85 39.2 20.4 55.7 12.1 11.7 28.7 18 45.4 18 1.25 0.00199 2.51 0.00398 3.8 0.00603 1.38-0.00285 2.76-0.0058 4.14-0.00883 1.47 4.36e-4 2.95 0.00131 4.42 0.00259 4.04 0.00223 8.09-0.00176 12.1-0.00678 4.36-0.00432 8.73-0.00286 13.1-0.0021 7.56 5.24e-4 15.1-0.00261 22.7-0.00824 10.9-0.00813 21.9-0.0107 32.8-0.012 17.7-0.00219 35.5-0.00884 53.2-0.0183 17.2-0.00918 34.4-0.0163 51.7-0.0205 1.59-3.94e-4 1.59-3.94e-4 3.22-7.96e-4 5.33-0.00131 10.7-0.00257 16-0.00381 44.2-0.0104 88.3-0.028 133-0.0503 0.00214-0.848 0.00214-0.848 0.00432-1.71 0.0197-5.89 0.074-11.8 0.148-17.7 0.0232-2.2 0.0376-4.39 0.043-6.59 0.00929-3.16 0.0503-6.32 0.0974-9.48-0.00393-0.98-0.00787-1.96-0.0119-2.97 0.0996-4.67 0.201-6.89 3.07-10.7 3.85-2.71 6.48-2.16 11-1.55l1.69 0.688c0.938 2.81 1.15 4.64 1.21 7.56 0.0199 0.921 0.0399 1.84 0.0604 2.79 0.0251 1.49 0.0251 1.49 0.0506 3 0.0208 1.02 0.0416 2.03 0.063 3.08 0.0654 3.25 0.124 6.5 0.183 9.75 0.0432 2.2 0.0868 4.4 0.131 6.61 0.107 5.4 0.209 10.8 0.307 16.2 10.1-1.53 18.9-6.81 25-15 6.69-11.2 8.15-20.3 8.15-33.1 0.00336-1.21 0.00672-2.41 0.0102-3.65 0.00785-3.29 0.0112-6.58 0.0118-9.87 7.13e-4 -2.06 0.00285-4.12 0.0055-6.18 0.00924-7.2 0.0133-14.4 0.0125-21.6-6.01e-4 -6.69 0.00995-13.4 0.0257-20.1 0.0131-5.76 0.0184-11.5 0.0178-17.3-2.54e-4 -3.43 0.00254-6.87 0.0132-10.3 0.00982-3.83 0.00691-7.67 8.95e-4 -11.5 0.00562-1.13 0.0112-2.25 0.017-3.41-0.0512-12.9-2.95-23.5-11.8-33.2-5.23-4.91-14.2-10.8-21.5-10.8-0.0022 0.891-0.0022 0.891-0.00444 1.8-0.037 14.5-0.096 28.9-0.179 43.4-0.0398 6.99-0.0722 14-0.0871 21-0.0144 6.74-0.0495 13.5-0.0973 20.2-0.0149 2.58-0.0227 5.15-0.0236 7.73-0.00236 3.6-0.0293 7.2-0.0622 10.8 0.00503 1.07 0.0101 2.14 0.0152 3.24-0.102 7.19-0.102 7.19-2.38 10.5-3.28 2.02-5.41 1.94-9.18 1.34-2.99-2.05-4.73-3.67-5.46-7.31-0.195-2.98-0.22-5.92-0.196-8.9-0.0105-1.13-0.021-2.26-0.0318-3.43-0.0288-3.74-0.0225-7.48-0.0158-11.2-0.0131-2.59-0.0284-5.19-0.0458-7.78-0.0358-6.13-0.0496-12.3-0.0526-18.4-0.00469-6.98-0.0376-14-0.0729-20.9-0.0719-14.3-0.108-28.7-0.122-43-3.37-1.12-5.9-1.13-9.46-1.13-0.661-0.00156-1.32-0.00312-2-0.00473-2.23-0.00401-4.46-8.25e-4 -6.69 0.00232-1.61-0.00132-3.21-0.00307-4.82-0.00521-4.42-0.00452-8.83-0.00263-13.3 4.28e-4 -3.77 0.00183-7.54 4.04e-5 -11.3-0.00179-12.4-0.00594-24.7 2.14e-4 -37.1 0.00883-4.27 0.00283-8.55 0.00499-12.8 0.00717-28.6 0.0149-57.2 0.0522-85.8 0.103-7.49 0.0132-15 0.0249-22.5 0.0359zm275 54c-0.101 2.86-0.136 5.69-0.129 8.54-0.00175 0.896-0.0035 1.79-0.00531 2.71-0.00442 2.98-0.00148 5.95 0.00189 8.93-6.73e-4 2.06-0.00164 4.12-0.0029 6.18-0.00148 4.32 6.78e-4 8.64 0.00534 13 0.0057 5.55 0.00242 11.1-0.00357 16.7-0.00361 4.25-0.00247 8.51 1.28e-4 12.8 6.69e-4 2.05-1.6e-4 4.1-0.00248 6.14-0.00253 2.86 0.00131 5.71 0.0069 8.57-0.00202 0.855-0.00405 1.71-0.00613 2.59-0.354 3.78-0.354 3.78 1.14 6.95 1.47 0.109 2.95 0.149 4.42 0.161 0.942 0.00961 1.88 0.0192 2.85 0.0291 1.03 0.00425 2.05 0.0085 3.11 0.0129 1.57 0.00855 1.57 0.00855 3.18 0.0173 2.23 0.00947 4.46 0.016 6.69 0.0198 3.4 0.00968 6.8 0.0407 10.2 0.0723 2.16 0.00653 4.33 0.0118 6.49 0.0156 1.02 0.0123 2.03 0.0247 3.08 0.0374 6.18-0.0194 10.8-0.515 15.6-4.87 3.82-4.91 4.48-8 4.53-14.1 0.00657-0.67 0.0131-1.34 0.0199-2.03 0.0197-2.22 0.0314-4.44 0.0414-6.65 0.00408-0.76 0.00815-1.52 0.0124-2.3 0.0209-4.02 0.0352-8.05 0.0445-12.1 0.011-4.14 0.0454-8.28 0.0852-12.4 0.0262-3.2 0.0345-6.39 0.0381-9.59 0.00485-1.53 0.0164-3.05 0.035-4.58 0.469-11.6 0.469-11.6-4.45-21.7-5.77-4.7-11.1-4.55-18.4-4.43-1.61 0.00493-1.61 0.00493-3.26 0.00996-2.26 0.0104-4.52 0.0303-6.78 0.0591-3.48 0.0443-6.95 0.0615-10.4 0.0735-2.2 0.0134-4.4 0.0283-6.59 0.0449-1.57 0.0111-1.57 0.0111-3.17 0.0224-1.44 0.0193-1.44 0.0193-2.9 0.0389-0.847 0.00984-1.69 0.0197-2.57 0.0298-1.94-0.0634-1.94-0.0634-2.93 1.15zm80 35c-1.23 2.45-1.03 3.84-0.879 6.57 0.0483 0.896 0.0967 1.79 0.146 2.71 0.0561 0.937 0.112 1.87 0.17 2.84 0.0522 0.945 0.104 1.89 0.158 2.86 0.13 2.34 0.265 4.67 0.404 7.01 12.9 0.0927 25.9 0.164 38.8 0.207 6.01 0.0209 12 0.0492 18 0.0945 5.8 0.0435 11.6 0.0674 17.4 0.0778 2.21 0.00739 4.42 0.0218 6.63 0.0434 3.1 0.0291 6.2 0.033 9.29 0.0312 0.914 0.0144 1.83 0.0288 2.77 0.0436 5.67-0.0367 8.73-0.806 13.1-4.5 2.35-3.21 2.47-6.1 2-10-2.04-3.66-3.5-5.67-7-8-1.99-0.294-1.99-0.294-4.2-0.241-0.854-0.00275-1.71-0.0055-2.59-0.00833-1.4 0.0108-1.4 0.0108-2.83 0.0218-0.986-2.92e-4 -1.97-5.84e-4 -2.99-8.85e-4 -3.26 0.0014-6.53 0.017-9.79 0.0326-2.26 0.00373-4.52 0.00658-6.78 0.00858-5.95 0.00764-11.9 0.0273-17.9 0.0494-6.07 0.0204-12.1 0.0296-18.2 0.0397-11.9 0.0215-23.8 0.0556-35.8 0.0977zm-462 128c1.58 7.19 1.58 7.19 3.37 14.3 0.25 0.939 0.501 1.88 0.759 2.85 0.397 1.48 0.397 1.48 0.802 2.99 0.573 2.16 1.14 4.33 1.72 6.49 0.888 3.36 1.78 6.71 2.68 10.1 6.32 23.6 11 46.7 8.98 71.2-0.0653 0.808-0.131 1.62-0.198 2.45-1.75 17.5-6.55 34.6-11.3 51.5-0.821 2.94-1.64 5.88-2.46 8.83-0.502 1.81-1.01 3.62-1.52 5.42-0.227 0.816-0.455 1.63-0.689 2.47-0.199 0.708-0.398 1.42-0.603 2.15-0.665 2.73-1.11 5.48-1.55 8.26 14.3 0.0233 28.6 0.0409 43 0.0518 6.65 0.00523 13.3 0.0123 20 0.0236 6.41 0.0108 12.8 0.0168 19.2 0.0194 2.45 0.00185 4.91 0.00548 7.36 0.0109 3.42 0.00721 6.84 0.00826 10.3 0.0078 1.54 0.00539 1.54 0.00539 3.11 0.0109 0.927-0.00137 1.85-0.00275 2.81-0.00417 1.22 0.00138 1.22 0.00138 2.46 0.00279 1.86 0.0787 1.86 0.0787 2.84-1.12 0.0977-2.43 0.13-4.83 0.12-7.26 8.54e-4 -0.769 0.00171-1.54 0.00259-2.33 0.00166-2.59-0.00387-5.19-0.00932-7.78-2.82e-4 -1.85-1.24e-4 -3.7 4.42e-4 -5.56 2.88e-4 -5.05-0.00561-10.1-0.0126-15.1-0.00623-5.27-0.00684-10.5-0.00803-15.8-0.00311-9.98-0.0113-20-0.0213-29.9-0.0132-13.5-0.0187-27-0.0245-40.4-0.00942-21.3-0.0293-42.5-0.0475-63.8h-111zm129 1c-0.0985 1.56-0.128 3.12-0.129 4.69-0.00315 0.998-0.0063 2-0.00955 3.02 0.00202 1.09 0.00405 2.17 0.00613 3.29-9.57e-4 1.11-0.00191 2.21-0.0029 3.35-6.82e-4 2.34 0.00117 4.69 0.00534 7.03 0.00535 3.6 5.56e-5 7.2-0.00635 10.8 6.61e-4 2.27 0.00194 4.54 0.00391 6.81-0.00202 1.09-0.00405 2.17-0.00613 3.29 0.00315 0.998 0.0063 2 0.00955 3.02 7.96e-4 0.883 0.00159 1.77 0.00241 2.68-0.0957 2.01-0.0957 2.01 1.13 3.01 17.2 0.998 33-0.389 46.7-11.7 10.8-10.1 13.3-22.5 14.3-36.8 0.00516-0.831 0.0103-1.66 0.0156-2.52-1.76-1.76-4.22-1.13-6.61-1.13-1.2-0.00315-2.4-0.0063-3.63-0.00955-1.3 0.00202-2.61 0.00405-3.95 0.00613-1.34-6.73e-4 -2.68-0.00164-4.02-0.0029-2.81-0.00148-5.63 6.77e-4 -8.44 0.00534-3.62 0.0057-7.23 0.00242-10.8-0.00357-2.77-0.00361-5.54-0.00247-8.31 1.28e-4 -1.98 9.95e-4 -3.97-0.00205-5.95-0.00513-1.2 0.00315-2.4 0.0063-3.63 0.00955-1.59 0.00119-1.59 0.00119-3.21 0.00241-2.34-0.143-2.34-0.143-3.39 1.13zm288 69c-0.0978 2.62-0.13 5.21-0.12 7.83-8.54e-4 0.83-0.00171 1.66-0.00259 2.51-0.00166 2.8 0.00387 5.6 0.00932 8.41 2.82e-4 2 1.24e-4 4-4.42e-4 6-2.88e-4 5.45 0.00561 10.9 0.0126 16.3 0.00623 5.69 0.00684 11.4 0.00803 17.1 0.00311 10.8 0.0113 21.6 0.0213 32.3 0.0112 12.3 0.0167 24.5 0.0217 36.8 0.0105 25.2 0.0281 50.5 0.0503 75.7 34 0.0229 68 0.0405 102 0.0511 4.01 0.00125 8.02 0.00255 12 0.00387 1.2 3.93e-4 1.2 3.93e-4 2.42 7.95e-4 12.9 0.00436 25.9 0.0122 38.8 0.0214 13.3 0.00934 26.5 0.0149 39.8 0.0169 8.19 0.00138 16.4 0.00573 24.6 0.0138 6.27 0.00589 12.5 0.00654 18.8 0.00519 2.58 2.77e-4 5.16 0.00228 7.74 0.0061 3.51 0.00493 7.01 0.0038 10.5 0.00105 1.55 0.00437 1.55 0.00437 3.14 0.00883 0.932-0.00199 1.86-0.00398 2.82-0.00603 0.811 3.8e-4 1.62 7.59e-4 2.46 0.00115 1.85 0.0768 1.85 0.0768 2.84-1.12 0.16-2.26 0.249-4.53 0.312-6.8 0.0307-1.07 0.0307-1.07 0.062-2.16 0.066-2.38 0.124-4.76 0.18-7.14 0.0314-1.24 0.0314-1.24 0.0635-2.5 0.464-18.4 0.531-36.8 0.517-55.2-0.0026-4.49-1.68e-4 -8.99 0.00139-13.5 0.00179-7.5-5.18e-4 -15-0.00534-22.5-0.00551-8.66-0.00362-17.3 0.00183-26 0.00453-7.5 0.00519-15 0.00256-22.5-0.00156-4.45-0.00177-8.91 0.00154-13.4 0.00287-4.15 9.14e-4 -8.31-0.00489-12.5-0.00133-1.53-9.34e-4 -3.05 0.00126-4.58 0.00271-2.07-6.66e-4 -4.14-0.00568-6.21-3.77e-4 -1.16-7.54e-4 -2.32-0.00114-3.52 0.167-2.51 0.167-2.51-1.13-3.58-13.5-1.55-27.3-1.14-40.8-1.13-2.47-0.00136-4.95-0.00314-7.42-0.00531-5.98-0.00406-12-0.0035-17.9-5.87e-4 -4.86 0.00227-9.72 0.00256-14.6 0.00148-0.694-1.53e-4 -1.39-3.06e-4 -2.1-4.64e-4 -1.41-3.2e-4 -2.82-6.44e-4 -4.23-9.73e-4 -13.2-0.00284-26.4 4.12e-4 -39.5 0.0058-11.3 0.00448-22.6 0.00368-33.9-9.19e-4 -13.2-0.00534-26.3-0.00746-39.5-0.00439-1.4 3.19e-4 -2.8 6.33e-4 -4.2 9.43e-4 -1.03 2.31e-4 -1.03 2.31e-4 -2.09 4.68e-4 -4.86 8.64e-4 -9.72-5.96e-4 -14.6-0.00295-6.52-0.00309-13-9.08e-4 -19.6 0.00489-2.4 0.00133-4.8 9.32e-4 -7.2-0.00126-3.26-0.00271-6.52 6.66e-4 -9.78 0.00568-0.963-0.00223-1.93-0.00446-2.92-0.00676-0.866 0.00261-1.73 0.00522-2.63 0.0079-1.13 2.44e-4 -1.13 2.44e-4 -2.28 4.92e-4 -1.75-0.0601-1.75-0.0601-2.72 1.13zm-452 143c-5.01 7.58-5.94 14.2-5.19 23.3 1.52 1.52 2.88 1.15 5 1.17 1.27 0.0202 1.27 0.0202 2.57 0.0409 0.923 0.0104 1.85 0.0209 2.8 0.0316 1.94 0.0329 3.88 0.0662 5.81 0.0996 3.07 0.0474 6.14 0.0918 9.2 0.131 2.95 0.0397 5.9 0.0913 8.86 0.144 1.38 0.0126 1.38 0.0126 2.78 0.0255 1.29 0.025 1.29 0.025 2.6 0.0504 1.13 0.0155 1.13 0.0155 2.28 0.0312 2.42 0.312 4.04 0.991 6.11 2.27 1.57 3.14 1.23 6.56 1 10l-1 3c-2.79 1.06-5.53 1.15-8.49 1.21-0.881 0.0199-1.76 0.0399-2.67 0.0604-1.41 0.0251-1.41 0.0251-2.85 0.0506-0.971 0.0208-1.94 0.0416-2.94 0.063-3.1 0.0653-6.19 0.124-9.29 0.183-2.1 0.0432-4.2 0.0868-6.3 0.131-5.15 0.107-10.3 0.208-15.4 0.307-0.0697 8.47-0.123 16.9-0.155 25.4-0.0156 3.93-0.0368 7.86-0.0709 11.8-0.0328 3.8-0.0506 7.6-0.0583 11.4-0.00551 1.44-0.0163 2.89-0.0326 4.33-0.32 12.3-0.32 12.3 4.97 23.1 0.855 0.669 0.855 0.669 1.73 1.35 0.565 0.461 1.13 0.923 1.71 1.4 5.39 3.46 10.2 3.51 16.4 3.49 1.44 0.00574 1.44 0.00574 2.91 0.0116 3.22 0.0103 6.44 0.00634 9.65 0.00237 2.31 0.00435 4.61 0.00953 6.92 0.0155 6.27 0.0134 12.5 0.014 18.8 0.0114 5.23-0.00107 10.5 0.00381 15.7 0.00861 13 0.0117 26.1 0.0109 39.1 0.00444 11.3-0.00517 22.6 0.00609 34 0.0251 11.6 0.0194 23.3 0.0273 34.9 0.0239 6.53-0.00181 13.1 8.44e-4 19.6 0.0147 6.14 0.0126 12.3 0.0107 18.4-0.00241 2.25-0.00237 4.51 3.87e-4 6.76 0.00862 3.07 0.0104 6.15 0.0024 9.22-0.0103 0.893 0.00737 1.79 0.0147 2.71 0.0223 5.88-0.0512 10.2-0.946 14.7-5.08 0.469-0.579 0.938-1.16 1.42-1.75 0.48-0.576 0.959-1.15 1.45-1.75 3.03-4.25 3.54-7.25 3.52-12.5 4.38e-4 -0.996 4.38e-4 -0.996 8.85e-4 -2.01-0.00139-2.19-0.0169-4.37-0.0326-6.56-0.00373-1.52-0.00658-3.04-0.00858-4.56-0.00762-3.99-0.0273-7.98-0.0494-12-0.0205-4.08-0.0296-8.15-0.0397-12.2-0.0214-7.99-0.0556-16-0.0977-24-0.939-5.45e-4 -1.88-0.00109-2.84-0.00165-22.8-0.0144-45.7-0.0574-68.5-0.13-11-0.0347-22.1-0.06-33.1-0.0635-9.62-0.00304-19.2-0.0235-28.9-0.065-5.09-0.0214-10.2-0.0339-15.3-0.0256-4.79 0.00753-9.59-0.00822-14.4-0.0419-1.76-0.00825-3.52-0.00796-5.28 0.00146-2.4 0.0116-4.8-0.00745-7.21-0.0342-0.697 0.0107-1.39 0.0213-2.11 0.0323-3.8-0.0789-5.36-0.615-8.37-3.02-2.06-2.65-2.06-2.65-2.63-5.65 0.712-3.8 1.79-5.31 4.56-8 2.68-0.503 4.74-0.676 7.42-0.633 1.13-0.0115 1.13-0.0115 2.27-0.0232 2.51-0.0196 5.03-0.00363 7.54 0.0121 1.8-0.00681 3.6-0.0158 5.41-0.0269 4.89-0.0239 9.79-0.0173 14.7-0.00551 5.12 0.00684 10.2-0.0152 15.3-0.0345 9.69-0.0323 19.4-0.0401 29.1-0.0384 14.2 0.00146 28.5-0.032 42.7-0.0677 2.1-0.00522 4.19-0.0104 6.29-0.0157 1.02-0.0026 2.05-0.00521 3.1-0.00789 6.1-0.0147 12.2-0.0216 18.3-0.0218 3.78-6.45e-4 7.57-0.00498 11.4-0.00997 1.76-0.00137 3.52-9.78e-4 5.29 0.00125 2.39 0.00288 4.79-1.86e-4 7.18-0.00472 1.06 0.00365 1.06 0.00365 2.14 0.00737 3.23 0.262 3.23 0.262 5.9-1.13 0.655-7.92 1.11-15.5-4-22-4.38-4.93-7.38-6.27-14-7-3.17-0.137-6.34-0.144-9.52-0.14-0.94-0.00297-1.88-0.00594-2.85-9e-3 -3.14-0.00865-6.28-0.0102-9.41-0.0117-2.25-0.00463-4.51-0.00966-6.76-0.015-6.12-0.0131-12.2-0.0196-18.3-0.024-3.82-0.00293-7.64-0.00704-11.5-0.0115-10.6-0.0121-21.2-0.0225-31.8-0.0259-0.677-2.2e-4 -1.35-4.39e-4 -2.05-6.65e-4 -0.678-2.18e-4 -1.36-4.37e-4 -2.06-6.61e-4 -1.37-4.43e-4 -2.75-8.9e-4 -4.12-0.00134-1.02-3.32e-4 -1.02-3.32e-4 -2.07-6.71e-4 -11.1-0.00395-22.1-0.0214-33.2-0.0447-11.4-0.0237-22.7-0.0359-34.1-0.0373-6.37-0.00105-12.7-0.00696-19.1-0.0248-5.99-0.0165-12-0.0186-18-0.00986-2.2 7.71e-4 -4.4-0.00358-6.59-0.0135-3-0.0127-6.01-0.00685-9.01 0.00358-1.3-0.0121-1.3-0.0121-2.63-0.0244-6.93 0.0562-12.6 1.12-17.8 6.08z" fill="#000100"/>
<path transform="translate(410 910)" d="m0 0c0.666-0.00555 1.33-0.0111 2.02-0.0168 2.19-0.0118 4.38 0.0124 6.57 0.0383 1.53 0.00171 3.06 0.00164 4.58-1.22e-4 3.2 0.00165 6.39 0.0203 9.59 0.0519 4.09 0.0397 8.18 0.044 12.3 0.0365 3.15-0.00307 6.31 0.00907 9.46 0.0261 1.51 0.00702 3.02 0.0102 4.53 0.00931 2.11 0.0018 4.22 0.0232 6.33 0.0501 1.8 0.0126 1.8 0.0126 3.64 0.0255 3.52 0.435 5.38 1.27 8.19 3.39 2.36 3.54 2.57 4.83 2 9-3.78 5.72-3.78 5.72-8.3 6.76-1.25 0.00477-2.51 0.00955-3.8 0.0145-1.04 0.0158-1.04 0.0158-2.11 0.0319-2.29 0.0263-4.57 0.00896-6.86-0.0114-1.6 0.00404-3.19 0.00987-4.79 0.0174-3.34 0.00883-6.68-0.00397-10-0.032-4.27-0.0342-8.55-0.0145-12.8 0.0214-3.29 0.0217-6.58 0.0148-9.88-7.67e-4 -1.58-0.00399-3.15 8.82e-4 -4.73 0.0149-2.21 0.0153-4.41-0.00804-6.61-0.0414-1.25-0.00477-2.51-0.00955-3.8-0.0145-4.66-1.08-5.72-2.79-8.3-6.76-0.153-4.35 0.421-6.28 3.14-9.68 3.51-2.86 5.2-2.95 9.68-2.94z" fill="#000100"/>
<path transform="translate(410 866)" d="m0 0c1.01-0.0107 1.01-0.0107 2.05-0.0217 2.22-0.0168 4.44 0.00249 6.66 0.0239 1.55-8.29e-4 3.1-0.00329 4.65-0.00731 3.24-0.00285 6.49 0.0118 9.73 0.0393 4.15 0.0341 8.3 0.0281 12.5 0.00934 3.2-0.0106 6.4-0.00162 9.6 0.0134 1.53 0.00517 3.06 0.00471 4.59-0.00154 2.14-0.00547 4.28 0.015 6.43 0.0423 1.22 0.0062 2.43 0.0124 3.69 0.0188 3.83 0.611 5.49 1.83 8.23 4.51 1.43 2.85 1.31 4.83 1 8-2.15 3.34-3.2 4.73-7 6-2.2 0.115-4.4 0.169-6.6 0.193-0.665 0.00818-1.33 0.0164-2.02 0.0248-2.2 0.0248-4.4 0.0414-6.6 0.0558-0.752 0.00532-1.5 0.0106-2.28 0.0161-3.98 0.0267-7.96 0.0461-11.9 0.0605-3.29 0.0133-6.58 0.0412-9.88 0.082-3.98 0.0493-7.96 0.0741-11.9 0.0812-1.51 0.00671-3.03 0.0219-4.54 0.0459-2.12 0.0317-4.24 0.0317-6.36 0.0243-1.81 0.0121-1.81 0.0121-3.65 0.0245-4.1-0.778-5.55-2.48-8.2-5.61l-1-1c0.159-4.13 0.54-6.42 3.12-9.69 3.55-2.84 5.29-2.93 9.79-2.94z" fill="#000100"/>
<path transform="translate(410 822)" d="m0 0c0.687-0.00701 1.37-0.014 2.08-0.0212 2.26-0.0175 4.52-0.00598 6.78 0.00757 1.58-0.0027 3.15-0.00658 4.73-0.0116 3.3-0.00589 6.59 0.00265 9.89 0.0214 4.22 0.0228 8.44 0.00965 12.7-0.0143 3.25-0.0145 6.5-0.00985 9.75 5.11e-4 1.56 0.00267 3.11-5.98e-4 4.67-0.00992 2.18-0.0102 4.35 0.00534 6.53 0.0276 1.24 0.00318 2.47 0.00636 3.75 0.00964 3.72 0.601 4.86 1.58 7.14 4.51 1.43 2.85 1.31 4.83 1 8-1.44 2.81-1.44 2.81-4 5-7.56 1.25-15.1 1.16-22.8 1.17-1.96 0.00499-1.96 0.00499-3.95 0.0101-2.75 0.00595-5.49 0.00784-8.24 0.00725-3.51-1.02e-4 -7.01 0.0136-10.5 0.0308-3.37 0.0138-6.73 0.0132-10.1 0.0144-1.25 0.00719-2.51 0.0144-3.8 0.0218-1.17-0.00308-2.34-0.00615-3.55-0.00932-1.54 0.00214-1.54 0.00214-3.11 0.00432-4.42-0.372-7.89-1.06-10.9-4.43-1.43-3.77-1.19-5.95-0.0625-9.81 3.85-3.96 6.59-4.5 12-4.52z" fill="#000100"/>
</svg>
